Coordinates
version=1
nRows=13
nColumns=40
inDegrees=yes

Units are S.I. units (second, meters, Newtons, ...)
Angles are in degrees.

endheader
time	pelvis_tilt	pelvis_list	pelvis_rotation	pelvis_tx	pelvis_ty	pelvis_tz	hip_flexion_r	hip_adduction_r	hip_rotation_r	knee_angle_r	knee_angle_r_beta	ankle_angle_r	subtalar_angle_r	mtp_angle_r	hip_flexion_l	hip_adduction_l	hip_rotation_l	knee_angle_l	knee_angle_l_beta	ankle_angle_l	subtalar_angle_l	mtp_angle_l	lumbar_extension	lumbar_bending	lumbar_rotation	arm_flex_r	arm_add_r	arm_rot_r	elbow_flex_r	pro_sup_r	wrist_flex_r	wrist_dev_r	arm_flex_l	arm_add_l	arm_rot_l	elbow_flex_l	pro_sup_l	wrist_flex_l	wrist_dev_l
     10.19750000	     -3.69113065	     -6.82278748	     -2.47814886	      1.01289833	      0.92013754	      0.48463568	     21.59919113	      3.78704318	    -13.11157877	     20.17824323	     20.17824323	      4.22344352	      0.60714998	     -2.41526329	      5.89325061	    -12.99988996	     -4.88612463	     44.78343639	     44.78343639	      9.25560371	    -16.80065580	    -10.14297436	    -11.38470978	      7.99270515	      3.45921238	    -13.89882760	    -11.70616832	     -3.79672540	     27.44428046	     46.26599878	      0.00000000	      0.00000000	     17.83680781	    -15.28193481	     -6.37652683	     97.15648317	     48.58120323	      0.00000000	      0.00000000
     10.20857143	     -3.74144549	     -6.90145942	     -2.15259648	      1.01306616	      0.92149605	      0.48658680	     20.78674992	      3.95586657	    -13.50283515	     19.62494673	     19.62494673	      4.54907130	      0.98007024	     -2.43448381	      8.02008983	    -13.40016979	     -3.71378984	     48.55313813	     48.55313813	      7.14218873	    -17.42332529	     -9.11112284	    -11.39998585	      7.98634907	      3.34911154	    -12.40641079	    -11.77600534	     -3.58585083	     28.14723624	     46.23236804	      0.00000000	      0.00000000	     16.74158863	    -14.91529481	     -6.30418005	     95.41321183	     48.53824912	      0.00000000	      0.00000000
     10.21964286	     -3.70493147	     -6.86130830	     -1.85302144	      1.01307215	      0.92288141	      0.48822897	     19.94692588	      3.95594724	    -13.95057326	     19.20211068	     19.20211068	      4.90348467	      1.53884014	     -2.58100686	     10.21645993	    -13.43242962	     -2.32491331	     52.46999977	     52.46999977	      6.93640656	    -17.25137908	     -3.40501114	    -11.51761519	      7.85820173	      3.52565795	    -11.14077671	    -12.10227027	     -2.11819028	     29.52921868	     46.07262744	      0.00000000	      0.00000000	     16.21146650	    -14.13122512	     -6.29180095	     92.53669976	     48.49105775	      0.00000000	      0.00000000
     10.23071429	     -3.72705863	     -6.89958239	     -1.50855819	      1.01290446	      0.92399397	      0.48978148	     19.15263030	      4.06671116	    -14.33626935	     18.70110532	     18.70110532	      5.17550541	      1.94434815	     -2.75310279	     12.43411084	    -13.57351017	     -1.09025050	     55.93227639	     55.93227639	      6.12114752	    -17.31787705	      0.11223268	    -11.56614400	      7.81778126	      3.56629594	     -9.79360947	    -12.43591582	     -1.25162264	     30.96943985	     45.96184910	      0.00000000	      0.00000000	     15.44624865	    -13.60730051	     -6.03109211	     90.00371320	     48.43005437	      0.00000000	      0.00000000
     10.24178571	     -3.68539420	     -6.98672695	     -1.17851699	      1.01261567	      0.92499924	      0.49133192	     18.32758151	      4.26592505	    -14.58895226	     18.24610049	     18.24610049	      5.46903456	      2.07822839	     -2.77096906	     14.43821793	    -13.79595232	     -0.03551398	     58.80674265	     58.80674265	      4.57162093	    -17.68619194	      0.65041440	    -11.77820815	      7.78359964	      3.55220445	     -7.98422106	    -12.65286150	     -1.28037137	     31.82991913	     45.94293608	      0.00000000	      0.00000000	     14.29846078	    -13.16808455	     -5.60083646	     88.62740677	     48.36985420	      0.00000000	      0.00000000
     10.25285714	     -3.75021152	     -6.94996879	     -0.80911173	      1.01216506	      0.92584024	      0.49252653	     17.60163327	      4.29177227	    -14.92951389	     17.74029049	     17.74029049	      5.70426477	      2.43398866	     -3.04968075	     16.68532507	    -13.69575934	      1.11249284	     61.60341890	     61.60341890	      4.79442333	    -17.69587225	      4.90756841	    -11.71162379	      7.72616151	      3.70298226	     -6.73389221	    -13.04225396	     -0.81175102	     33.63677831	     45.84696757	      0.00000000	      0.00000000	     14.12417440	    -12.52878921	     -5.47285155	     83.98339747	     48.27451664	      0.00000000	      0.00000000
     10.26392857	     -3.80368231	     -7.05150279	     -0.42368362	      1.01163572	      0.92650035	      0.49373937	     16.88172210	      4.50913042	    -15.11644345	     17.23912598	     17.23912598	      5.95073374	      2.49205198	     -3.05711687	     18.78614558	    -13.85049369	      2.03473704	     63.75648159	     63.75648159	      4.13362334	    -17.99114829	      5.56443020	    -11.75412592	      7.79062528	      3.42097950	     -4.83282872	    -13.27209780	     -0.90532078	     34.86540066	     45.81729038	      0.00000000	      0.00000000	     12.88372485	    -12.46841080	     -4.99974350	     81.93876654	     48.19483197	      0.00000000	      0.00000000
     10.27500000	     -3.85862327	     -7.14614543	     -0.03851094	      1.01102524	      0.92707684	      0.49497862	     16.17956585	      4.73187584	    -15.34396607	     16.75225706	     16.75225706	      6.28617478	      2.46628186	     -3.13101742	     20.82893255	    -14.02799930	      2.76902694	     65.46457248	     65.46457248	      4.10532826	    -18.28538668	      6.48238112	    -11.82700012	      7.76237817	      3.07118534	     -2.85787314	    -13.49764605	     -0.96695874	     36.28973910	     45.77801026	      0.00000000	      0.00000000	     11.87267002	    -12.34758379	     -4.65847975	     78.96601644	     48.10900752	      0.00000000	      0.00000000
     10.28607143	     -3.82326425	     -7.12885610	      0.28514179	      1.01033687	      0.92776019	      0.49602804	     15.43935508	      4.83543821	    -15.37931594	     16.35363823	     16.35363823	      6.45641285	      2.38417270	     -3.49772352	     22.80226830	    -13.98712633	      3.41794165	     66.91959595	     66.91959595	      5.41800715	    -18.34305653	     10.49628526	    -11.86444764	      7.65362213	      4.05277364	     -2.09756663	    -14.16276563	     -0.67954999	     39.18214776	     45.65184570	      0.00000000	      0.00000000	     12.67104790	    -11.20691302	     -3.83769112	     72.84046172	     47.94867458	      0.00000000	      0.00000000
     10.29714286	     -3.81848398	     -7.20000819	      0.66756031	      1.00957547	      0.92828178	      0.49707418	     14.71308003	      5.05095019	    -15.42179814	     15.89804062	     15.89804062	      6.71678565	      2.17691085	     -3.65000769	     24.71853516	    -14.14476787	      3.87547266	     67.76290510	     67.76290510	      6.14916640	    -18.62400069	     12.12094439	    -11.94917190	      7.63239056	      4.11927438	     -0.47290406	    -14.51834070	     -0.83386089	     41.48689517	     45.58299420	      0.00000000	      0.00000000	     12.31168115	    -10.87121267	     -3.15896675	     68.57890143	     47.82459199	      0.00000000	      0.00000000
     10.30821429	     -3.84936876	     -7.32630767	      1.10136378	      1.00876710	      0.92863598	      0.49800960	     14.01841048	      5.31620596	    -15.55306963	     15.41542307	     15.41542307	      7.02433155	      2.03238432	     -3.66218030	     26.60890315	    -14.41517922	      4.20256257	     68.07490487	     68.07490487	      6.69019543	    -18.88418325	     12.56017829	    -12.00424209	      7.66763428	      3.53030722	      1.85447143	    -14.60726350	     -1.07218928	     43.17444539	     45.54620688	      0.00000000	      0.00000000	     11.04413898	    -10.98506940	     -2.75298539	     65.76249212	     47.73917761	      0.00000000	      0.00000000
     10.31928571	     -3.82104405	     -7.36656303	      1.48565362	      1.00789979	      0.92908501	      0.49881552	     13.28729214	      5.51664842	    -15.46912400	     14.96774223	     14.96774223	      7.26226596	      1.61931540	     -3.82705807	     28.37335666	    -14.53233606	      4.40042961	     68.00489068	     68.00489068	      8.10062748	    -19.04486375	     15.27917115	    -12.03991767	      7.61453005	      4.12282841	      3.19264338	    -15.25603815	     -0.86532974	     45.80398636	     45.44864831	      0.00000000	      0.00000000	     11.72236213	    -10.03090432	     -2.32028754	     59.23415764	     47.60906368	      0.00000000	      0.00000000
     10.33035714	     -3.82496835	     -7.42856801	      1.90365369	      1.00696938	      0.92936409	      0.49949875	     12.59524991	      5.71668148	    -15.51942986	     14.52145165	     14.52145165	      7.55105383	      1.37031399	     -3.94021265	     30.07465279	    -14.67956024	      4.49186791	     67.42664509	     67.42664509	      9.21542477	    -19.18888727	     17.09303477	    -12.10054546	      7.59322355	      4.24254551	      4.82315321	    -15.68207996	     -1.11682932	     48.75641854	     45.36796118	      0.00000000	      0.00000000	     11.52489397	     -9.68855987	     -1.56661625	     54.35788330	     47.47285383	      0.00000000	      0.00000000
